<svg fill="none" height="120" viewBox="0 0 512 120" width="512" xmlns="http://www.w3.org/2000/svg"><path d="m151.716 48.2763c-.523 13.085-10.282 20.9361-25.966 20.9361-18.908 0-29.7998-11.2531-29.7998-30.7061s10.2828-29.74595 27.1858-29.74595c8.975 0 14.464 2.52995 17.95 8.28695v-7.15295h9.933v21.10995h-10.718c-.261-4.012-.871-6.019-2.526-8.374-2.44-3.663-6.71-5.67-11.938-5.67-11.065 0-17.078 7.938-17.078 22.419 0 14.48 6.013 21.633 16.904 21.633 8.103 0 12.634-4.187 13.767-12.736zm55.503-30.182c4.705 5.234 6.883 11.776 6.883 20.412 0 19.104-11.414 30.7061-30.322 30.7061-9.846 0-17.862-3.1411-23.351-9.0731-4.967-5.408-7.232-12.125-7.232-21.633 0-18.406 11.588-29.83296 30.235-29.83296 10.282 0 18.211 3.14036 23.787 9.42096zm-38.077 6.368c-2.004 3.489-3.137 8.723-3.137 14.655 0 14.044 6.274 21.895 17.601 21.895 5.228 0 9.933-2.007 12.896-5.583 3.224-3.838 4.705-8.985 4.705-16.399 0-6.281-1.046-11.0789-3.137-14.6549-2.788-4.624-8.365-7.5021-14.464-7.5021s-11.676 2.878-14.464 7.589zm63.258-6.63v42.307h6.971v7.938h-24.049v-7.938h7.145v-42.307h-7.145v-7.93795h26.402l9.41 29.83295c2.178 6.979 2.875 9.77 4.095 16.487.523-2.791.872-4.798 1.133-5.757.261-.96 1.481-5.06 3.398-11.253l9.062-29.30995h26.314v7.93795h-7.232v42.307h7.232v7.938h-25.53v-7.938h6.884v-42.307l-16.73 50.245h-10.891zm85.913 42.307h9.236v7.938h-29.015v-7.938h7.493v-42.307h-7.493v-7.93795h31.978c12.372 0 19.779 6.71695 19.779 17.96995 0 6.281-2.527 11.689-6.797 14.655-3.485 2.442-7.493 3.3151-14.464 3.3151h-10.717zm7.406-22.244c4.27 0 6.535-.523 8.452-2.093 2.091-1.657 3.311-4.623 3.311-7.938 0-6.717-3.834-10.032-11.85-10.032h-7.319v20.063zm77.374 22.244h5.054v7.938h-25.617v-7.938h7.58l-3.746-9.857h-23.875l-3.833 9.857h7.667v7.938h-24.136v-7.938h5.054l20.825-50.24495h14.464zm-19.866-17.62-8.8-22.855-8.888 22.855zm38.512 5.757c1.22 9.072 4.705 12.736 12.199 12.736 6.709 0 10.63-2.879 10.63-7.851 0-4.013-1.83-5.845-8.452-8.113l-10.543-3.75c-10.717-3.751-14.29-7.677-14.29-15.615 0-10.642 7.407-17.00996 19.867-17.00996 7.406 0 12.024 2.18106 14.551 6.71706v-5.49605h9.933v18.84195h-9.933c0-7.851-3.921-11.863-11.676-11.863-6.186 0-9.846 2.791-9.846 7.414 0 3.49 1.917 5.234 8.452 7.502l10.282 3.577c6.447 2.181 9.933 4.274 11.937 7.24 1.742 2.442 2.614 5.583 2.614 9.334 0 10.904-7.581 17.2721-20.476 17.2721-8.017 0-12.896-2.3561-15.249-7.3281v6.193h-9.933v-19.801zm50.537 0c1.22 9.072 4.705 12.736 12.199 12.736 6.709 0 10.63-2.879 10.63-7.851 0-4.013-1.83-5.845-8.452-8.113l-10.543-3.75c-10.717-3.751-14.29-7.677-14.29-15.615 0-10.642 7.407-17.00996 19.866-17.00996 7.407 0 12.025 2.18106 14.552 6.71706v-5.49605h9.933v18.84195h-9.933c0-7.851-3.921-11.863-11.676-11.863-6.187 0-9.846 2.791-9.846 7.414 0 3.49 1.917 5.234 8.452 7.502l10.281 3.577c6.448 2.181 9.933 4.274 11.938 7.24 1.742 2.442 2.614 5.583 2.614 9.334 0 10.904-7.581 17.2721-20.477 17.2721-8.016 0-12.895-2.3561-15.248-7.3281v6.193h-9.933v-19.801z" fill="#ffa706"/><path d="m76.1722 33.7265c-.82-1.239-3.172-1.588-4.915-2.041-1.0674-.1544-2.0587-.6426-2.8318-1.3947s-1.2884-1.7295-1.4722-2.7923c-.473-1.3063-1.0257-2.5824-1.655-3.821-.243-.6889-.243-1.4402 0-2.129.853-2.076 1.951-4.047 2.823-6.123.0771-.2973.0874-.6079.0302-.9096-.0573-.3018-.1806-.587-.3612-.8354-1.5-1.744-3.19-3.175-4.706-4.81503-.2461-.33551-.6147-.56035-1.0257-.62569s-.8312.03408-1.1693.27669h-.018c-1.742.96-3.746 1.74503-5.576 2.72203-.4066.2485-.8739.3799-1.3505.3799-.4765 0-.9438-.1314-1.3505-.3799-1.743-.873-3.608-1.44803-5.35-2.30303-.7136-.34863-1.2902-.92591-1.638-1.63999-.837-1.93701-1.534-3.96001-2.179-5.98401-.0801-.412834-.3175-.778342-.6622-1.019261-.3447-.2409182-.7695-.3383666-1.1848-.2717433h-6.57c-.3606.0480828-.7053.1785373-1.0074.3812563-.302.202719-.5534.472267-.7346.787748-.854 2.006-1.481 4.11699-2.283 6.14099-.236.58532-.6589 1.07616-1.203 1.39601-2.317 1.064-4.705 2.80803-6.97 2.75603-2.266-.052-4.636-1.90203-6.97-2.96603l-.14-.105c-.1355-.11918-.2934-.21021-.4644-.26776-.1711-.05755-.3519-.08047-.5319-.06744s-.3556.06175-.5166.14334c-.161.08158-.3041.1944-.4211.33186-.035.052-.088.105-.123.157-1.568 1.62303-3.171 3.07103-4.73996 4.81503-.20424.277-.34188.5975-.40223.9363-.06035.3389-.0418.6871.05423 1.0177.854 2.076 1.95196 4.048 2.83996 6.124.21.645.21 1.326 0 1.971-.749 1.919-1.54996 3.908-2.43996 5.653-.31249.67-.83968 1.2165-1.498 1.553-1.952.82-3.973 1.535-5.995 2.18-.4516.0731-.85632.3209-1.126843.6898-.270522.369-.3851536.8295-.3191593 1.2822 0 2.128.0870003 4.257 0 6.385-.0415105.4386.0845183.8766.3527593 1.2261.268242.3495.658813.5845 1.093243.6579 1.97.628 3.939 1.309 5.82 2.111.75.332 1.36.907 1.743 1.623.8764 1.7981 1.65026 3.6444 2.31796 5.53.2614.7454.2614 1.5575 0 2.303-.871 2.059-1.96896 3.96-2.78796 5.984-.09589.3335-.11439.6845-.05408 1.0262.06031.3418.19783.6652.40208.9458 1.44696 1.622 3.11996 3.07 4.58396 4.675.575.733 1.62.873 2.37.349 1.882-.994 3.834-1.867 5.75-2.774l1.098-.471c1.4448.8322 2.9758 1.5048 4.566 2.006 1.2091.2301 2.3166.8307 3.169 1.7186.8524.8878 1.4074 2.0189 1.588 3.2364.436 1.605.82 3.716 1.987 4.519s3.276.279 4.984.296c3.904 0 4.078 0 5.228-3.733.3262-1.4994 1.0427-2.8861 2.077-4.0196s2.3497-1.9737 3.813-2.4354c1.2577-.6245 2.6515-.9245 4.0546-.8728 1.4032.0517 2.7712.4535 3.9794 1.1688 3.868 2.181 3.99 1.972 7.127-1.151 3.485-3.385 3.573-3.489 1.29-7.694-.6362-1.1408-.9889-2.4178-1.0284-3.7233-.0395-1.3056.2353-2.6016.8014-3.7787.473-1.5574 1.3626-2.956 2.5727-4.0445s2.6947-1.8256 4.2933-2.1315c3.486-.942 3.486-1.134 3.486-4.658-.157-1.867.365-4.17-.523-5.478zm-37.955 27.914c-13.366-.105-24.206-10.887-24.397-24.268 0-13.486 10.926-24.424 24.414-24.407 13.471 0 24.38 10.939 24.38 24.407-.157 13.399-11.014 24.198-24.397 24.285z" fill="#00c605"/><path d="m52.5592 24.5326c-6.326 2.25-12.652 4.484-18.978 6.752l3.033 2.808c.4962-.1546 1.0134-.2308 1.533-.226 2.475-.088 4.548 1.849 4.653 4.326 0 .471-.087.942-.244 1.379l3.05 2.808c2.404-5.7236 4.7973-11.4516 7.18-17.184.087-.227.156-.454.296-.803zm-13.105 17.795c-.4328.1106-.8773.169-1.324.174-1.1881.0431-2.3456-.3827-3.2227-1.1855-.877-.8028-1.4033-1.9182-1.4653-3.1055 0-.419.07-.855.192-1.256l-3.05-2.809c-2.16 5.146-4.322 10.31-6.465 15.457l-.994 2.408.54-.157 18.856-6.717zm280.3928 49.355c-8.47 3.018-16.956 6.002-25.426 9.0554l4.061 3.768c.664-.212 1.359-.312 2.056-.296 1.593-.051 3.142.529 4.31 1.614 1.168 1.084 1.861 2.585 1.929 4.178 0 .628-.105 1.256-.331 1.849l4.095 3.768c3.224-7.676 6.431-15.353 9.619-23.0294.122-.296.209-.61.401-1.081l-.697.192z" fill="#ee7d33"/><path d="m342.797 89.7284c8.696 0 13.523 4.641 13.523 12.9626 0 4.292-1.429 7.781-4.06 9.944-2.51 2.059-5.489 2.896-10.351 2.896h-12.251v-3.524h3.276v-18.7536h-3.276v-3.525zm-4.409 22.2786h2.545c3.624 0 5.646-.61 7.232-2.285 1.585-1.623 2.439-4.135 2.439-7.188 0-3.0526-.854-5.5296-2.544-7.1876-1.516-1.465-3.398-2.093-6.378-2.093h-3.276v18.7536zm32.692-11.34v-3.0526h3.712v9.6646h-3.712v-3.053h-4.217v7.781h10.317v-4.728h4.409v8.235h-23.456v-3.524h3.276v-18.7546h-3.276v-3.524h23.456v7.886h-4.409v-4.362h-10.317v7.4316zm28.249 11.34h3.781v3.524h-12.982v-3.524h3.746v-18.7536h-5.106v5.373h-4.409v-8.898h24.502v8.898h-4.409v-5.373h-5.141v18.7536zm20.633 0h3.206v3.524h-12.024v-3.524h3.363v-18.7536h-3.363v-3.525h14.098c3.625 0 5.873.733 7.302 2.408.958 1.169 1.516 2.669 1.516 4.362 0 2.093-.819 4.0296-2.161 5.1456-.924.803-2.004 1.204-4.026 1.431v.157c2.632.157 3.782 1.082 4.566 3.629l1.708 5.146h2.631v3.524h-7.144l-2.632-7.972c-.662-2.042-1.708-2.792-3.816-2.792h-3.207v7.24zm3.206-10.764c3.433 0 5.49-1.5526 5.49-4.1346s-1.586-3.873-4.636-3.873h-4.06v8.0076zm38.513-7.8856c2.091 2.321 3.05 5.217 3.05 9.0546 0 8.479-5.054 13.608-13.454 13.608-4.356 0-7.911-1.396-10.351-4.03-2.196-2.408-3.207-5.374-3.207-9.596 0-8.1636 5.141-13.2236 13.401-13.2236 4.566 0 8.069 1.396 10.544 4.17zm-16.869 2.827c-.889 1.552-1.394 3.8726-1.394 6.5066 0 6.228 2.788 9.7 7.807 9.7 2.318 0 4.409-.89 5.716-2.477 1.429-1.71 2.091-3.978 2.091-7.275 0-2.7916-.47-4.9196-1.394-6.4896-1.237-2.059-3.712-3.333-6.413-3.333s-5.176 1.274-6.413 3.368zm25.966-2.949h-3.399v-3.524h12.286v3.524h-3.433v18.7546h3.433v3.524h-12.286v-3.524h3.399zm26.226 18.7716h3.782v3.524h-12.983v-3.524h3.747v-18.7536h-5.106v5.373h-4.409v-8.898h24.502v8.898h-4.409v-5.373h-5.141v18.7536z" fill="#fff"/></svg>